# xmcd
#
# Track frame offsets: 
#        150
#        10999
#        25200
#        39607
#        58862
#        76735
#        89058
#        101217
#        116279
#        129061
#        142416
#        155367
#        171467
#        250204
#        262722
#
# Disc length: 3704 seconds
#
# Revision: 1
# Processed by: cddbd v1.5.2PL0 Copyright (c) Steve Scherf et al.
# Submitted via: ExactAudioCopy v0.99pb5
#
DISCID=c70e760f
DTITLE=Various Artist - CD 12 Banabas Swing - Latin Jazz Fever
DYEAR=2008
DGENRE=Jazz
TTITLE0=Sonny Rollins - Mambo Bounce
TTITLE1=Dizzy Gillespie - Manteca
TTITLE2=Duke Ellington - The Flaming Sword
TTITLE3=Bob Enevoldsen - Danza To Brazil
TTITLE4=Ahmad Jamal - Perfidia
TTITLE5=Charlie Parker - La Paloma
TTITLE6=Dizzy Gillespie - Cubana Be
TTITLE7=Dizzy Gillespie - Cubana Bop
TTITLE8=James Mondy and Chano Pozo - Tin Tin Deo
TTITLE9=Herbie Harper - 6 4 Mambo
TTITLE10=Charlie Parker - Fiesta
TTITLE11=Louis Armstrong - Perdido Street Blues
TTITLE12=Machito - The Afro Cuban Jazz Suite
TTITLE13=Charlie Parker - Tico Tico
TTITLE14=Louis Jordan - Early In The Morning
EXTD=YEAR: 2008
EXTT0=
EXTT1=
EXTT2=
EXTT3=
EXTT4=
EXTT5=
EXTT6=
EXTT7=
EXTT8=
EXTT9=
EXTT10=
EXTT11=
EXTT12=
EXTT13=
EXTT14=
PLAYORDER=
